<?xml version="1.0" encoding="utf-8"?>
<svg height="800px" width="800px" version="1.1" id="Capa_1" xmlns="http://www.w3.org/2000/svg" viewBox="0 0 179.006 179.006" xmlns:bx="https://boxy-svg.com">
  <g>
    <path style="fill:#010002;" d="M 69.246 97.982 C 65.988 97.982 63.345 95.345 63.345 92.075 C 63.345 88.805 69.246 78.465 69.246 78.465 C 69.246 78.465 75.147 88.812 75.147 92.075 C 75.147 95.339 72.509 97.982 69.246 97.982 Z M 64.8 73.894 L 58.034 73.894 L 58.034 109.97 L 46.297 109.97 L 46.297 115.519 L 53.123 115.519 L 53.123 120.621 L 0 120.621 L 0 115.519 L 6.832 115.519 L 6.832 58.392 L 46.303 58.392 L 46.303 104.862 L 52.926 104.862 L 52.926 71.346 L 52.956 68.786 L 55.468 68.786 L 67.3 68.786 L 71.262 73.876 L 67.234 77.015 L 64.8 73.894 Z M 37.55 67.235 L 15.574 67.235 L 15.574 83.638 L 37.55 83.638 L 37.55 67.235 Z M 93.244 78.966 C 87.432 81.997 85.171 89.175 88.208 94.993 C 91.245 100.811 98.423 103.072 104.229 100.041 C 110.053 97.004 112.314 89.838 109.283 84.008 C 106.252 78.19 99.074 75.934 93.244 78.966 Z M 104.862 15.938 L 95.548 15.938 L 95.548 40.402 L 104.862 40.402 L 104.862 15.938 Z M 95.553 163.069 L 104.867 163.069 L 104.867 138.599 L 95.553 138.599 L 95.553 163.069 Z M 154.542 84.843 L 154.542 94.163 L 179.006 94.163 L 179.006 84.843 L 154.542 84.843 Z M 130.931 47.407 L 134.225 50.701 L 151.523 33.403 L 148.223 30.109 L 130.931 47.407 Z M 130.931 131.599 L 148.229 148.897 L 151.523 145.603 L 134.231 128.305 L 130.931 131.599 Z M 74.043 152.346 L 86 152.346 L 86 150.234 L 86 148.134 L 74.043 148.134 L 74.043 142.937 L 86.937 142.937 L 86.937 140.765 L 86.937 138.605 L 68.929 138.605 L 68.929 163.069 L 87.504 163.069 L 87.504 160.891 L 87.504 158.719 L 74.043 158.719 L 74.043 152.346 Z M 74.61 40.402 L 74.61 30.055 L 85.326 30.055 L 85.326 27.943 L 85.326 25.849 L 74.61 25.849 L 74.61 20.282 L 86.914 20.282 L 86.914 18.104 L 86.914 15.938 L 69.508 15.938 L 69.508 40.402 L 72.068 40.402 L 74.61 40.402 Z"/>
    <path d="M 100.532 103.731 L 104.339 134.666 L 96.724 134.666 L 100.532 103.731 Z" bx:shape="triangle 96.724 103.731 7.615 30.935 0.5 0 1@84270797" style="fill: rgb(1, 0, 2); transform-box: fill-box; transform-origin: 50% 50%;" transform="matrix(-0.999969, 0.007842, -0.007842, -0.999969, -1.189918, -0.476029)"/>
  </g>
</svg>