<?xml version="1.0" encoding="utf-8"?>
<!-- Svg Vector Icons : http://www.onlinewebfonts.com/icon -->
<!DOCTYPE svg PUBLIC "-//W3C//DTD SVG 1.1//EN" "http://www.w3.org/Graphics/SVG/1.1/DTD/svg11.dtd">
<svg version="1.1" xmlns="http://www.w3.org/2000/svg" xmlns:xlink="http://www.w3.org/1999/xlink" x="0px" y="0px" viewBox="0 0 256 256" enable-background="new 0 0 256 256" xml:space="preserve">
<metadata> Svg Vector Icons : http://www.onlinewebfonts.com/icon </metadata>
<g><g><g><path fill="#000000" d="M62.2,19.9c-2.6,1-4.7,2.7-6,5.1c-2.3,3.8-2.2,4.8,3.1,28.4c4.4,19.9,4.8,21.5,5.9,22c0.6,0.3,1.2,1.1,1.4,1.6c0.5,1.9,0.4,4.8-0.2,5.4c-1.1,0.9-10.4,4.2-11.8,4.2c-1.4,0-2.3-0.8-3.5-3.2c-0.6-1.3-0.7-1.8-0.2-2.6c0.5-1-0.5-3-9.7-20.5c-5.7-10.8-10.8-20.2-11.5-20.9c-2.6-3-8.9-4.5-12.7-2.9c-2.2,0.9-4.8,3.4-6,5.5c-1.3,2.4-1.4,7.6-0.2,9.9c0.5,0.8,6,9.6,12.4,19.4c10.3,16,11.7,17.9,12.9,18.1c1.2,0.2,2.7,2.3,13.8,19.6c8.1,12.6,13,19.8,13.9,20.4c1.7,1.2,3.6,1.3,5.5,0.4c1.9-1,2.8-2.4,2.8-4.8c0-3.2-2-6.1-4.9-7.2c-1.2-0.5-2.7-1.3-3.3-1.8c-1.2-1-1.2-1.3-0.3-6.8c0.2-1.4,0-2.2-1.2-4.3c-0.8-1.4-1.4-3-1.4-3.6c0-1.3,0.7-1.8,5.2-3.3c3.6-1.2,4.8-1,5.3,1.1c1.1,5.2,1.5,5.9,4,7.8c2.1,1.5,2.4,2.1,2.6,3.5c0.1,1.2-0.2,2.2-1,3.6c-1.3,2.1-1.5,3.6-0.7,6.8c1.1,4.4,5.7,5.9,9,2.8c1.4-1.3,1.7-1.8,1.7-3.6c0-1.1-1.3-12.1-2.9-24.3c-2.8-20.8-2.9-22.3-2.2-22.8c0.4-0.3,0.8-1,0.8-1.7c0-3.1-5.6-43.2-6.2-44.7c-0.9-2.2-3.2-4.6-5.5-5.8C68.7,19.3,64.6,19.1,62.2,19.9z"/><path fill="#000000" d="M187.1,19.7c-3.2,1-6,3.2-7.4,6.1c-0.6,1.2-1.6,7.5-3.6,22.9c-1.5,11.6-2.8,21.8-2.8,22.4c0,0.7,0.4,1.4,0.8,1.7c0.7,0.4,0.6,2-2.2,22.8c-1.6,12.2-3,23-3,24c0,3.3,2.2,5.5,5.7,5.5c1.5,0,2.2-0.3,3.2-1.3c2.4-2.5,3-6.9,1.1-9.8c-0.8-1.3-1.1-2.4-1-3.6c0.1-1.4,0.5-2,2.6-3.5c2.4-1.8,2.9-2.6,4-7.8c0.5-2.1,1.6-2.4,5.3-1.1c4.5,1.5,5.2,2,5.2,3.3c0,0.6-0.6,2.3-1.4,3.6c-1.2,2.1-1.4,2.9-1.2,4.3c0.9,5.5,0.9,5.8-0.3,6.8c-0.6,0.5-2.1,1.3-3.3,1.8c-5.2,1.9-6.8,8.9-2.7,11.7c2,1.3,4.1,1.3,6,0c0.9-0.6,5.9-7.9,13.9-20.4c11.2-17.4,12.6-19.4,13.9-19.6c1.2-0.2,2.6-2.1,12.9-18.1c6.3-9.8,11.9-18.6,12.3-19.4c1.2-2.2,1.1-7.4-0.2-9.8c-1.2-2.2-3.8-4.7-6-5.5c-3.8-1.6-10.1-0.1-12.7,2.9c-0.6,0.7-5.8,10.2-11.5,20.9c-9.3,17.6-10.3,19.6-9.7,20.5c0.5,0.8,0.4,1.3-0.2,2.6c-1.2,2.4-2.1,3.2-3.5,3.2c-1.4,0-10.8-3.3-11.8-4.2c-0.6-0.6-0.7-3.5-0.2-5.4c0.2-0.6,0.8-1.3,1.4-1.6c1.1-0.5,1.5-2,5.9-21.8c2.6-11.7,4.8-22,4.8-22.9C201.5,23.6,193.8,17.6,187.1,19.7z"/><path fill="#000000" d="M74.1,135.2c-0.3,0.3-0.6,2-0.6,4.4v3.8h-9.2H55l0.1,46.5l0.1,46.5l71.2,0.1l71.3,0.1v-46.6v-46.6h-9h-9v-3.6c0-2.2-0.2-3.9-0.6-4.4c-0.6-0.7-1.8-0.8-14-0.7l-13.4,0.1l-0.2,4.2l-0.2,4.2h-24.7h-24.7l-0.1-3.7c-0.1-2-0.4-3.9-0.6-4.2C100.4,134.5,74.9,134.4,74.1,135.2z M172.3,178.3v3.9h3.9h3.9v4.2v4.2h-3.9h-3.9v3.9v3.9h-3.9h-3.9v-3.9v-3.9l-4-0.1l-4.1-0.1l-0.1-4l-0.1-4l4.1-0.1l4.1-0.1l0.1-3.8l0.1-3.8h3.9h3.9V178.3L172.3,178.3z M96.6,186.4v4.2H84.8H73v-4.2v-4.2h11.8h11.8V186.4z"/></g></g></g>
</svg>