<?xml version="1.0" encoding="utf-8"?>
<!-- Svg Vector Icons : http://www.onlinewebfonts.com/icon -->
<!DOCTYPE svg PUBLIC "-//W3C//DTD SVG 1.1//EN" "http://www.w3.org/Graphics/SVG/1.1/DTD/svg11.dtd">
<svg version="1.1" xmlns="http://www.w3.org/2000/svg" xmlns:xlink="http://www.w3.org/1999/xlink" x="0px" y="0px" viewBox="0 0 256 256" enable-background="new 0 0 256 256" xml:space="preserve">
<metadata> Svg Vector Icons : http://www.onlinewebfonts.com/icon </metadata>
<g><g><g><path fill="#000000" d="M196.2,10.7c-2.5,3.4-7.5,10.6-11.1,16c-21.3,32.1-30.8,56.8-28.3,73.6c2.9,19.2,17.3,34.1,36.1,37.7c5.1,0.9,14.8,0.7,19.6-0.6c4.8-1.3,13.3-5.7,17.3-9c10.9-9,17-23.2,16.1-37.1c-0.9-13.2-8.3-31.8-21.1-53c-7.2-11.9-22.5-33.8-23.6-33.8C201,4.5,198.8,7.3,196.2,10.7z M201.2,77v39.7l-3.1-0.3c-8.8-0.8-17-8.2-19.1-17.2c-1.5-6.2,0.8-15.1,8.7-33.6c3.8-8.9,12.9-28.3,13.3-28.3C201.1,37.3,201.2,55.1,201.2,77z"/><path fill="#000000" d="M28.9,132.1L10,169.9v29.6V229h11.1h11l0.3,2c1.3,8.7,5.7,14.9,12.6,18.2c13.7,6.4,29.1-1.6,31.6-16.6l0.6-3.5h45.1h45l0.3,2c1.3,8.6,5.3,14.5,12,17.9c4.8,2.3,9,3.1,13.5,2.3c9.6-1.5,17-8.9,18.7-18.6l0.6-3.5h11.3H235v-33.5V162h-98c-53.9,0-98-0.1-98-0.3c0-0.2,5.1-10.4,11.2-22.7l11.3-22.5h36h36.1v-11.1V94.3H90.7H47.8L28.9,132.1z M66,195.5v11.4H49.1H32.2v-11.4v-11.4h16.9H66V195.5z M156.3,195.5v11.4h-34.1H88.2v-11.4v-11.4h34.1h34.1V195.5z M212.8,195.5v11.4h-17.2h-17.2v-11.4v-11.4h17.2h17.2V195.5z"/></g></g></g>
</svg>