<?xml version="1.0" standalone="no"?>
<!DOCTYPE svg PUBLIC "-//W3C//DTD SVG 20010904//EN"
 "http://www.w3.org/TR/2001/REC-SVG-20010904/DTD/svg10.dtd">
<svg version="1.0" xmlns="http://www.w3.org/2000/svg"
 viewBox="0 0 2600.000000 2600.000000"
 preserveAspectRatio="xMidYMid meet">
<metadata>
Created by potrace 1.15, written by Peter Selinger 2001-2017
</metadata>
<g transform="translate(0.000000,2600.000000) scale(0.100000,-0.100000)"
fill="#000000" stroke="none">
<path d="M12780 20870 l0 -1790 560 0 560 0 0 730 0 730 690 0 690 0 0 365 0
365 -690 0 -690 0 0 310 0 310 810 0 810 0 0 385 0 385 -1370 0 -1370 0 0
-1790z"/>
<path d="M9870 20228 c-284 -220 -483 -399 -790 -707 -427 -428 -728 -793
-1062 -1291 -65 -96 -118 -180 -118 -186 0 -8 1844 -1084 1890 -1102 3 -1 42
50 85 115 321 483 795 997 1272 1382 58 47 90 79 85 86 -24 40 -1248 1784
-1252 1785 -3 0 -53 -37 -110 -82z"/>
<path d="M7522 17397 c-50 -92 -173 -352 -230 -482 -408 -943 -644 -1952 -698
-2982 l-7 -133 1100 0 1099 0 13 168 c58 785 265 1564 597 2251 41 84 74 159
74 165 0 8 -1101 650 -1851 1078 l-48 28 -49 -93z"/>
<path d="M14968 14809 c-613 -76 -1082 -538 -1171 -1156 l-13 -87 -1027 -835
c-565 -458 -1026 -835 -1025 -837 2 -1 584 109 1293 247 710 137 1295 249
1302 249 7 0 44 -21 84 -46 141 -92 338 -166 514 -195 44 -7 141 -13 215 -12
730 4 1320 602 1320 1338 0 726 -568 1313 -1297 1339 -65 3 -152 1 -195 -5z"/>
<path d="M6594 13023 c30 -620 140 -1296 307 -1893 102 -365 322 -980 351
-980 15 0 1988 922 1988 929 0 3 -16 47 -36 96 -217 550 -372 1255 -409 1873
l-7 112 -1101 0 -1100 0 7 -137z"/>
<path d="M8620 10084 c-487 -227 -934 -436 -993 -464 l-108 -50 57 -108 c424
-792 934 -1469 1593 -2115 l232 -227 62 73 c259 306 1343 1600 1345 1607 2 4
-73 84 -165 177 -427 428 -777 887 -1051 1378 -33 61 -67 117 -74 126 -12 15
-107 -27 -898 -397z"/>
<path d="M12775 8348 c-3 -7 -4 -814 -3 -1793 l3 -1780 1510 0 1510 0 0 405 0
405 -952 3 -953 2 0 350 0 350 860 0 860 0 0 365 0 365 -860 0 -860 0 0 285 0
285 925 0 925 0 0 385 0 385 -1480 0 c-1175 0 -1482 -3 -1485 -12z"/>
</g>
</svg>
